<svg xmlns="http://www.w3.org/2000/svg" viewBox="0 0 512 512">
  <defs>
    <filter id="soft" x="-10%" y="-10%" width="120%" height="120%">
      <feGaussianBlur in="SourceGraphic" stdDeviation="0.6" result="blur"/>
      <feMerge><feMergeNode in="blur"/><feMergeNode in="SourceGraphic"/></feMerge>
    </filter>
  </defs>
  <g filter="url(#soft)">
    <path fill="#fff" d="M256 36c94 0 170 92 170 206 0 112-78 234-170 234S86 354 86 242C86 128 162 36 256 36z"/>
    <path fill="#000" d="M184 234c0-38 38-64 72-64-22 22-22 80 0 102-34 0-72-16-72-38z"/>
    <path fill="#000" d="M328 234c0-38-38-64-72-64 22 22 22 80 0 102 34 0 72-16 72-38z"/>
    <path fill="#000" d="M224 352c10 10 54 10 64 0 4-4 4-10 0-14-16-16-48-16-64 0-4 4-4 10 0 14z" opacity="0.9"/>
  </g>
</svg>
